<?xml version="1.0" encoding="UTF-8"?>
<svg version="1.1" xmlns="http://www.w3.org/2000/svg" width="500" height="500">
<path d="M0 0 C1.26259972 -0.00453111 2.52519944 -0.00906223 3.82605976 -0.01373065 C7.30097056 -0.0258706 10.77578444 -0.02571092 14.25071156 -0.02334189 C18.01028532 -0.02293142 21.76982895 -0.03399485 25.52938843 -0.04345703 C32.88464696 -0.06001924 40.23987342 -0.06556444 47.59514905 -0.06668179 C53.57967203 -0.06763468 59.5641845 -0.07175699 65.54870415 -0.07808304 C82.54717172 -0.0956836 99.54561412 -0.10492394 116.54409087 -0.10342209 C117.45911105 -0.10334218 118.37413122 -0.10326227 119.31687927 -0.10317993 C120.69110198 -0.10305729 120.69110198 -0.10305729 122.09308677 -0.10293217 C136.92741571 -0.10211995 151.76164296 -0.12124463 166.5959425 -0.14945666 C181.85833237 -0.17825179 197.12067275 -0.19199327 212.38309044 -0.19026911 C220.93939286 -0.18960742 229.49558871 -0.19500209 238.05186653 -0.21662521 C245.33921873 -0.23492466 252.62641606 -0.23911312 259.91378141 -0.22560637 C263.62445949 -0.21912013 267.33484122 -0.21879976 271.04549026 -0.23631287 C306.45190379 -0.39291893 335.60021902 7.88505541 361.71702576 32.51742554 C374.73432042 46.18679248 389.50309978 67.5591227 390.11936951 87.11898804 C390.08972107 87.82797241 390.06007263 88.53695679 390.02952576 89.26742554 C390.68952576 89.26742554 391.34952576 89.26742554 392.02952576 89.26742554 C392.12121273 129.21754252 392.19163109 169.16764572 392.23378707 209.11784702 C392.23878951 213.84137206 392.24396684 218.5648969 392.24925232 223.28842163 C392.25030156 224.22873431 392.2513508 225.16904699 392.25243184 226.13785399 C392.26980591 241.33499637 392.30132696 256.53207782 392.33813694 271.72918414 C392.37563001 287.33925855 392.39777924 302.9493012 392.40587974 318.5594188 C392.41135021 328.18071712 392.42858673 337.80184318 392.46119162 347.42308845 C392.48244296 354.03342941 392.48870195 360.64368218 392.48353127 367.25405477 C392.48098588 371.05985338 392.48470433 374.86535237 392.50634766 378.6710968 C392.69813297 414.17022471 384.69650459 443.86710482 359.77952576 469.95492554 C339.32186115 489.64114189 312.43174935 500.61048405 284.05905151 500.53485107 C282.79645179 500.53938219 281.53385207 500.5439133 280.23299176 500.54858172 C276.75808096 500.56072167 273.28326707 500.56056199 269.80833995 500.55819297 C266.04876619 500.55778249 262.28922256 500.56884592 258.52966309 500.57830811 C251.17440455 500.59487032 243.81917809 500.60041551 236.46390247 500.60153286 C230.47937949 500.60248575 224.49486702 500.60660806 218.51034737 500.61293411 C201.51187979 500.63053467 184.51343739 500.63977502 167.51496064 500.63827316 C166.59994047 500.63819325 165.6849203 500.63811334 164.74217224 500.63803101 C163.36794953 500.63790836 163.36794953 500.63790836 161.96596474 500.63778324 C147.1316358 500.63697102 132.29740856 500.65609571 117.46310901 500.68430774 C102.20071915 500.71310286 86.93837877 500.72684435 71.67596108 500.72512019 C63.11965865 500.7244585 54.5634628 500.72985317 46.00718498 500.75147629 C38.71983278 500.76977573 31.43263545 500.77396419 24.1452701 500.76045744 C20.43459202 500.7539712 16.72421029 500.75365083 13.01356125 500.77116394 C-22.22154439 500.92701229 -51.78611408 492.7281363 -77.65797424 468.01742554 C-97.3441906 447.55976093 -108.31353276 420.66964913 -108.23789978 392.29695129 C-108.24243089 391.03435157 -108.24696201 389.77175185 -108.25163043 388.47089154 C-108.26377038 384.99598074 -108.2636107 381.52116685 -108.26124167 378.04623973 C-108.2608312 374.28666597 -108.27189463 370.52712234 -108.28135681 366.76756287 C-108.29791902 359.41230434 -108.30346422 352.05707787 -108.30458157 344.70180225 C-108.30553446 338.71727927 -108.30965677 332.7327668 -108.31598282 326.74824715 C-108.33358338 309.74977957 -108.34282372 292.75133717 -108.34132187 275.75286042 C-108.34124196 274.83784025 -108.34116205 273.92282008 -108.34107971 272.98007202 C-108.34099795 272.06392355 -108.34091619 271.14777507 -108.34083195 270.20386452 C-108.34001973 255.36953558 -108.35914441 240.53530834 -108.38735645 225.70100879 C-108.41615157 210.43861893 -108.42989305 195.17627855 -108.42816889 179.91386086 C-108.4275072 171.35755843 -108.43290187 162.80136258 -108.45452499 154.24508476 C-108.47282444 146.95773256 -108.4770129 139.67053523 -108.46350615 132.38316988 C-108.45701991 128.67249181 -108.45669954 124.96211007 -108.47421265 121.25146103 C-108.630061 86.01635539 -100.431185 56.4517857 -75.72047424 30.57992554 C-55.26280964 10.89370918 -28.37269783 -0.07563298 0 0 Z M219.02952576 97.26742554 C219.02952576 183.72742554 219.02952576 270.18742554 219.02952576 359.26742554 C239.81952576 359.26742554 260.60952576 359.26742554 282.02952576 359.26742554 C282.02952576 272.80742554 282.02952576 186.34742554 282.02952576 97.26742554 C261.23952576 97.26742554 240.44952576 97.26742554 219.02952576 97.26742554 Z M110.02952576 150.26742554 C110.02952576 219.23742554 110.02952576 288.20742554 110.02952576 359.26742554 C131.14952576 359.26742554 152.26952576 359.26742554 174.02952576 359.26742554 C174.02952576 290.29742554 174.02952576 221.32742554 174.02952576 150.26742554 C152.90952576 150.26742554 131.78952576 150.26742554 110.02952576 150.26742554 Z M2.02952576 202.26742554 C2.02952576 254.07742554 2.02952576 305.88742554 2.02952576 359.26742554 C22.81952576 359.26742554 43.60952576 359.26742554 65.02952576 359.26742554 C65.02952576 307.45742554 65.02952576 255.64742554 65.02952576 202.26742554 C44.23952576 202.26742554 23.44952576 202.26742554 2.02952576 202.26742554 Z " fill="#eeeee1" transform="translate(107.97047424316406,-0.267425537109375)"/>
</svg>
